<svg width="275" height="202" viewBox="0 0 275 202" fill="none" xmlns="http://www.w3.org/2000/svg">
<mask id="mask0_14_151" style="mask-type:alpha" maskUnits="userSpaceOnUse" x="91" y="14" width="81" height="83">
<ellipse cx="131.29" cy="55.1015" rx="41.3459" ry="39.3253" transform="rotate(61.4937 131.29 55.1015)" fill="#C4C4C4"/>
</mask>
<g mask="url(#mask0_14_151)">
<path d="M158.063 84.3575C141.244 93.4917 119.933 86.9709 110.512 69.6247C101.103 52.3001 107.254 31.4073 124.094 22.2615C132.439 17.7295 144.39 16.931 155.603 19.6219C166.83 22.3159 176.688 28.3493 181.255 36.7578C185.746 45.0283 184.498 54.3833 179.711 63.1171C174.916 71.8668 166.718 79.6565 158.063 84.3575Z" stroke="#AAAE9F" stroke-width="5"/>
<path d="M166.454 73.3823C151.175 81.68 133.213 77.1315 126.081 63.999C118.635 50.2882 121.378 30.7539 136.095 22.7615C143.547 18.714 152.848 18.2163 161.302 20.5281C169.776 22.8453 177.016 27.8758 180.564 34.4091C187.697 47.5416 181.732 65.0846 166.454 73.3823Z" stroke="#AAAE9F" stroke-width="5"/>
</g>
<path d="M163.305 92.4238V93.4434H157.457V92.4238H163.305ZM160.926 89.9336V96.1445H159.842V89.9336H160.926Z" fill="#ADC3B6"/>
<path d="M155.609 100.848V102.887H143.914V100.848H155.609ZM150.852 95.8672V108.289H148.684V95.8672H150.852Z" fill="#ADC3B6"/>
<path d="M270.724 175.074C264.177 187.976 259.918 194.215 250.348 202C252.665 196.513 254.058 193.553 255.797 187.356C258.731 181.5 259.826 178.191 255.797 172.004C251.029 164.912 247.922 160.929 241.819 153.817C236.319 143.412 234.292 136.058 234 118.152C241.625 118.3 245.913 119.429 253.665 129.726V126.419C250.589 117.276 250.032 114.676 248.926 107.051C249.363 94.4275 250.303 87.9764 253.665 78C254.786 85.8099 255.399 90.1922 257.219 97.84C259.117 104.31 260.156 107.973 260.773 116.263C259.637 134.696 259.16 145.1 259.588 164.21C260.629 160.81 261.292 159.016 262.905 156.415C266.673 147.097 268.75 141.792 274.278 136.575V152.164C275.768 161.564 275.124 166.602 270.724 175.074Z" fill="#9CA89E"/>
<path d="M155.546 176.634C160.975 187.351 164.507 192.534 172.443 199C170.522 194.442 169.366 191.983 167.924 186.836C165.491 181.972 164.583 179.223 167.924 174.084C171.878 168.193 174.455 164.885 179.516 158.977C184.077 150.334 185.758 144.225 186 129.352C179.677 129.475 176.121 130.413 169.692 138.966V136.219C172.243 128.625 172.705 126.465 173.622 120.131C173.26 109.645 172.481 104.287 169.692 96C168.763 102.487 168.255 106.127 166.745 112.48C165.171 117.854 164.31 120.897 163.798 127.783C164.74 143.094 165.135 151.736 164.781 167.61C163.917 164.786 163.368 163.295 162.03 161.135C158.906 153.395 157.183 148.989 152.599 144.655V157.604C151.363 165.412 151.897 169.597 155.546 176.634Z" fill="#9CA89E"/>
<path d="M232.116 155.789C221.577 176.493 214.721 186.507 199.316 199C203.045 190.194 205.289 185.443 208.088 175.499C212.811 166.101 214.574 160.79 208.088 150.861C200.413 139.48 195.412 133.088 185.586 121.674C176.733 104.976 173.471 93.1732 173 64.4381C185.274 64.6747 192.177 66.4875 204.656 83.0114V77.7048C199.705 63.0322 198.808 58.8596 197.028 46.6229C197.731 26.3635 199.243 16.0105 204.656 0C206.46 12.5336 207.446 19.5666 210.377 31.84C213.432 42.2229 215.105 48.1013 216.098 61.4057C214.269 90.988 213.502 107.684 214.191 138.352C215.867 132.897 216.933 130.017 219.53 125.844C225.595 110.89 228.939 102.376 237.837 94.0038V119.021C240.236 134.107 239.2 142.191 232.116 155.789Z" fill="#ADC3B6"/>
<path d="M182.086 188.971C185.28 195.214 187.357 198.233 192.025 202C190.895 199.345 190.215 197.913 189.367 194.914C187.936 192.081 187.402 190.479 189.367 187.486C191.693 184.054 193.209 182.127 196.186 178.686C198.869 173.651 199.857 170.092 200 161.429C196.281 161.5 194.189 162.046 190.407 167.029V165.429C191.908 161.005 192.179 159.747 192.719 156.057C192.506 149.949 192.047 146.827 190.407 142C189.861 145.779 189.562 147.899 188.674 151.6C187.748 154.731 187.241 156.503 186.94 160.514C187.494 169.434 187.727 174.468 187.518 183.714C187.01 182.069 186.687 181.201 185.9 179.943C184.062 175.434 183.049 172.867 180.352 170.343V177.886C179.625 182.434 179.94 184.872 182.086 188.971Z" fill="#ADC3B6"/>
<path d="M229.043 192.051C230.64 195.381 231.679 196.991 234.013 199C233.448 197.584 233.108 196.82 232.684 195.221C231.968 193.71 231.701 192.856 232.684 191.259C233.846 189.429 234.604 188.401 236.093 186.566C237.434 183.881 237.929 181.983 238 177.362C236.14 177.4 235.094 177.691 233.204 180.349V179.495C233.954 177.136 234.09 176.465 234.359 174.497C234.253 171.239 234.024 169.575 233.204 167C232.93 169.015 232.781 170.146 232.337 172.12C231.874 173.79 231.621 174.735 231.47 176.874C231.747 181.631 231.863 184.316 231.759 189.248C231.505 188.37 231.343 187.907 230.95 187.236C230.031 184.831 229.524 183.462 228.176 182.116V186.139C227.813 188.565 227.97 189.865 229.043 192.051Z" fill="#ADC3B6"/>
<path d="M145.018 187.84C141.984 193.667 140.011 196.484 135.576 200C136.649 197.522 137.295 196.185 138.101 193.387C139.461 190.742 139.968 189.247 138.101 186.453C135.892 183.251 134.452 181.452 131.623 178.24C129.075 173.541 128.135 170.22 128 162.133C131.533 162.2 133.521 162.71 137.113 167.36V165.867C135.688 161.738 135.43 160.563 134.917 157.12C135.12 151.419 135.555 148.505 137.113 144C137.632 147.527 137.916 149.506 138.76 152.96C139.64 155.882 140.121 157.536 140.407 161.28C139.88 169.605 139.66 174.303 139.858 182.933C140.34 181.398 140.647 180.588 141.395 179.413C143.141 175.205 144.104 172.809 146.665 170.453V177.493C147.356 181.739 147.057 184.014 145.018 187.84Z" fill="#ADC3B6"/>
<path d="M4.27632 175.074C10.8231 187.976 15.0822 194.215 24.652 202C22.3355 196.513 20.9417 193.553 19.2027 187.356C16.2688 181.5 15.1736 178.191 19.2027 172.004C23.9705 164.912 27.0776 160.929 33.1814 153.817C38.6809 143.412 40.7077 136.058 41 118.152C33.3752 118.3 29.0872 119.429 21.3351 129.726V126.419C24.4107 117.276 24.9677 114.676 26.0736 107.051C25.6366 94.4275 24.6973 87.9764 21.3351 78C20.2141 85.8099 19.6015 90.1922 17.7812 97.84C15.8831 104.31 14.8441 107.973 14.2273 116.263C15.3634 134.696 15.8397 145.1 15.4119 164.21C14.3707 160.81 13.7081 159.016 12.0949 156.415C8.32749 147.097 6.24977 141.792 0.722416 136.575V152.164C-0.767933 161.564 -0.12397 166.602 4.27632 175.074Z" fill="#9CA89E"/>
<path d="M119.454 176.634C114.025 187.351 110.493 192.534 102.557 199C104.478 194.442 105.634 191.983 107.076 186.836C109.509 181.972 110.417 179.223 107.076 174.084C103.122 168.193 100.545 164.885 95.4837 158.977C90.9231 150.334 89.2424 144.225 89 129.352C95.323 129.475 98.8789 130.413 105.308 138.966V136.219C102.757 128.625 102.295 126.465 101.378 120.131C101.74 109.645 102.519 104.287 105.308 96C106.237 102.487 106.745 106.127 108.255 112.48C109.829 117.854 110.69 120.897 111.202 127.783C110.26 143.094 109.865 151.736 110.219 167.61C111.083 164.786 111.632 163.295 112.97 161.135C116.094 153.395 117.817 148.989 122.401 144.655V157.604C123.637 165.412 123.103 169.597 119.454 176.634Z" fill="#9CA89E"/>
<path d="M42.8838 155.789C53.4226 176.493 60.2787 186.507 75.6838 199C71.9547 190.194 69.711 185.443 66.9117 175.499C62.1887 166.101 60.4258 160.79 66.9117 150.861C74.5867 139.48 79.5884 133.088 89.414 121.674C98.2668 104.976 101.529 93.1732 102 64.4381C89.7259 64.6747 82.8232 66.4875 70.3442 83.0114V77.7048C75.2953 63.0322 76.192 58.8596 77.9721 46.6229C77.2686 26.3635 75.7566 16.0105 70.3442 0C68.5398 12.5336 67.5536 19.5666 64.6233 31.84C61.568 42.2229 59.8954 48.1013 58.9024 61.4057C60.7313 90.988 61.4981 107.684 60.8094 138.352C59.1334 132.897 58.0666 130.017 55.4699 125.844C49.4052 110.89 46.0606 102.376 37.1629 94.0038V119.021C34.7638 134.107 35.8004 142.191 42.8838 155.789Z" fill="#ADC3B6"/>
<path d="M92.914 188.971C89.7204 195.214 87.6428 198.233 82.9746 202C84.1046 199.345 84.7845 197.913 85.6328 194.914C87.064 192.081 87.5982 190.479 85.6328 187.486C83.3071 184.054 81.7914 182.127 78.8139 178.686C76.1313 173.651 75.1426 170.092 75 161.429C78.7194 161.5 80.8111 162.046 84.5927 167.029V165.429C83.0923 161.005 82.8206 159.747 82.2812 156.057C82.4943 149.949 82.9525 146.827 84.5927 142C85.1395 145.779 85.4383 147.899 86.3263 151.6C87.2521 154.731 87.759 156.503 88.0599 160.514C87.5057 169.434 87.2733 174.468 87.482 183.714C87.9899 182.069 88.3131 181.201 89.1 179.943C90.9378 175.434 91.9513 172.867 94.6476 170.343V177.886C95.3746 182.434 95.0605 184.872 92.914 188.971Z" fill="#ADC3B6"/>
<path d="M45.957 192.051C44.3602 195.381 43.3214 196.991 40.9873 199C41.5523 197.584 41.8923 196.82 42.3164 195.221C43.032 193.71 43.2991 192.856 42.3164 191.259C41.1535 189.429 40.3957 188.401 38.907 186.566C37.5656 183.881 37.0713 181.983 37 177.362C38.8597 177.4 39.9056 177.691 41.7963 180.349V179.495C41.0462 177.136 40.9103 176.465 40.6406 174.497C40.7472 171.239 40.9763 169.575 41.7963 167C42.0697 169.015 42.2192 170.146 42.6631 172.12C43.1261 173.79 43.3795 174.735 43.5299 176.874C43.2528 181.631 43.1367 184.316 43.241 189.248C43.4949 188.37 43.6566 187.907 44.05 187.236C44.9689 184.831 45.4757 183.462 46.8238 182.116V186.139C47.1873 188.565 47.0302 189.865 45.957 192.051Z" fill="#ADC3B6"/>
</svg>
