<svg width="317" height="228" viewBox="0 0 317 230" fill="none" xmlns="http://www.w3.org/2000/svg">
<path d="M100.127 67.982H28.4126C20.7659 68.2546 11.5359 65.5816 10.2952 48.968C8.5548 34.8884 14.5001 30.0769 28.4126 31.4166C29.3018 23.4202 30.1312 19.158 36.7164 14.9622C44.4214 11.7827 47.8755 12.8661 53.324 17.1561C58.4084 8.09396 62.2399 4.16673 73.3286 2.16431C88.1129 0.894669 94.272 6.845 96.3528 24.8349C112.097 27.4637 119.061 30.7727 119 48.968C118.332 64.9208 108.417 68.0334 100.127 67.982Z" stroke="#AAAE9F" stroke-width="4"/>
<circle cx="10" cy="28" r="7.5" stroke="#ADC3B6" stroke-width="5"/>
<path d="M273.127 214.985H201.413C193.766 215.208 184.536 213.021 183.295 199.428C181.555 187.909 187.5 183.972 201.413 185.068C202.302 178.526 203.131 175.038 209.716 171.605C217.421 169.004 220.875 169.89 226.324 173.4C231.408 165.986 235.24 162.773 246.329 161.134C261.113 160.096 267.272 164.964 269.353 179.683C285.097 181.834 292.061 184.541 292 199.428C291.332 212.481 281.417 215.027 273.127 214.985Z" stroke="#AAAE9F" stroke-width="4"/>
<circle cx="292" cy="220" r="7.5" stroke="#ADC3B6" stroke-width="5"/>
<circle cx="309.5" cy="202.5" r="5" stroke="#ADC3B6" stroke-width="5"/>
<path d="M145.695 193.952C147.349 200.99 147.111 204.438 145.695 210.164L152.848 216L157.4 199.788L165.853 177.091L177.558 161.527C182.141 162.809 183.881 162.493 186.662 161.527C196.043 157.169 200.225 154.22 206.82 148.558C217.644 135.058 222.766 127.54 230.88 114.188C247.766 94.1785 258.207 83.6123 279 66.2C265.56 69.3583 258.027 71.0222 244.536 77.8727C226.432 86.2891 216.251 90.8888 199.017 102.515C184 113.244 177.313 120.586 170.405 137.533C168.839 144.371 168.931 148.205 170.405 155.042C179.741 140.668 184.826 132.551 199.017 120.024L226.978 97.9758C209.666 114.636 199.575 123.587 184.061 142.073L160.001 180.333V145.315V127.806C157.845 114.332 156.728 106.842 152.848 92.1394L138.542 49.9879L152.848 82.4121C159.954 101.014 162.344 111.552 165.853 130.4C170.755 119.237 172.399 111.642 170.405 92.1394C167.024 78.5554 164.51 70.9062 157.4 57.1212C142.376 35.0655 131.847 22.958 107.979 2L124.236 49.9879C129.266 75.3323 130.768 90.1874 138.542 114.188C143.908 122.691 147.267 127.343 157.4 134.291C156.561 150.634 157.227 159.347 152.848 177.091L142.444 155.042C144.887 151.196 145.251 148.537 142.444 142.073C136.705 134.252 133.34 134.939 128.788 137.533C124.236 140.127 128.788 151.8 128.788 151.8C128.788 151.8 132.444 157.598 138.542 158.933C142.545 167.128 145.081 171.684 145.695 180.333L133.99 165.418L114.482 145.315C115.727 139.676 112.013 130.308 111.231 130.4C110.461 128.714 99.7235 120.447 94.3237 130.4C93.3513 137.58 94.4853 140.78 98.8756 145.315C104.224 147.827 106.519 148.663 111.231 148.558C119.037 153.54 122.464 157.935 128.788 165.418C137.51 176.017 141.581 182.17 145.695 193.952Z" fill="#ADC3B6"/>
</svg>
