<svg width="32" height="37" viewBox="0 0 32 37" fill="none" xmlns="http://www.w3.org/2000/svg">
<path d="M8.94182 33.1879C9.22801 34.4048 9.18681 35.0009 8.94182 35.9909L10.1791 37L10.9664 34.197L12.4287 30.2727L14.4533 27.5818C15.2461 27.8035 15.547 27.7487 16.028 27.5818C17.6507 26.8282 18.374 26.3184 19.5148 25.3394C21.3871 23.0053 22.2731 21.7056 23.6766 19.397C26.5973 15.9374 28.4034 14.1105 32 11.1C29.6753 11.6461 28.3722 11.9337 26.0386 13.1182C22.9072 14.5733 21.1462 15.3686 18.1651 17.3788C15.5675 19.2337 14.4109 20.5031 13.216 23.4333C12.945 24.6156 12.9611 25.2784 13.216 26.4606C14.8309 23.9753 15.7104 22.572 18.1651 20.4061L23.0017 16.5939C20.0071 19.4745 18.2616 21.0221 15.5781 24.2182L11.4164 30.8333V24.7788V21.7515C11.0435 19.4219 10.8502 18.1268 10.1791 15.5848L7.70456 8.29697L10.1791 13.903C11.4082 17.1193 11.8217 18.9412 12.4287 22.2C13.2765 20.2699 13.561 18.9568 13.216 15.5848C12.6311 13.2362 12.1963 11.9137 10.9664 9.5303C8.36772 5.71693 6.54649 3.62359 2.41805 0L5.23002 8.29697C6.10001 12.6789 6.35981 15.2473 7.70456 19.397C8.63277 20.8671 9.21382 21.6715 10.9664 22.8727C10.8213 25.6985 10.9365 27.2049 10.1791 30.2727L8.37943 26.4606C8.80206 25.7956 8.86497 25.3359 8.37943 24.2182C7.38673 22.8659 6.8047 22.9848 6.01737 23.4333C5.23005 23.8818 6.01737 25.9 6.01737 25.9C6.01737 25.9 6.64974 26.9025 7.70456 27.1333C8.39694 28.5502 8.83566 29.3379 8.94182 30.8333L6.9172 28.2545L3.54284 24.7788C3.7582 23.8038 3.11577 22.184 2.98044 22.2C2.84725 21.9085 0.990009 20.4792 0.0559924 22.2C-0.112206 23.4414 0.08395 23.9946 0.843344 24.7788C1.76851 25.2132 2.16546 25.3577 2.98044 25.3394C4.33065 26.2009 4.92348 26.9607 6.01737 28.2545C7.52609 30.087 8.23017 31.1509 8.94182 33.1879Z" fill="#9CA89E"/>
</svg>
