<svg width="268" height="228" viewBox="0 0 268 228" fill="none" xmlns="http://www.w3.org/2000/svg">
<path d="M181 31.8648C195.968 21.8938 204.235 18.3299 217.759 31.8648C228.825 41.5352 237.964 38.4067 254 31.8648M217.759 31.8648C228.825 41.5352 237.964 38.4067 254 31.8648" stroke="#AAAE9F" stroke-width="4"/>
<path d="M187 19.6828C199.507 11.0413 206.416 7.95258 217.716 19.6828C226.963 28.0638 234.6 25.3525 248 19.6828M217.716 19.6828C226.963 28.0638 234.6 25.3525 248 19.6828" stroke="#AAAE9F"/>
<path d="M184 65.8648C197.328 55.8938 204.689 52.3299 216.73 65.8648C226.584 75.5352 234.721 72.4067 249 65.8648M216.73 65.8648C226.584 75.5352 234.721 72.4067 249 65.8648" stroke="#AAAE9F" stroke-width="3"/>
<path d="M179 44.8648C194.378 34.8938 202.872 31.3299 216.766 44.8648C228.135 54.5352 237.524 51.4067 254 44.8648M216.766 44.8648C228.135 54.5352 237.524 51.4067 254 44.8648" stroke="#AAAE9F" stroke-width="2"/>
<path d="M179 54.8648C194.378 44.8938 202.872 41.3299 216.766 54.8648C228.135 64.5352 237.524 61.4067 254 54.8648M216.766 54.8648C228.135 64.5352 237.524 61.4067 254 54.8648" stroke="#AAAE9F"/>
<path d="M255.5 42C255.5 63.8724 238.207 81.5 217 81.5C195.793 81.5 178.5 63.8724 178.5 42C178.5 20.1276 195.793 2.5 217 2.5C238.207 2.5 255.5 20.1276 255.5 42Z" stroke="#9CA89E" stroke-width="5"/>
<path d="M120.639 168.5C120.639 199.9 94.274 225.5 61.5696 225.5C28.8651 225.5 2.5 199.9 2.5 168.5C2.5 137.1 28.8651 111.5 61.5696 111.5C94.274 111.5 120.639 137.1 120.639 168.5Z" stroke="#9CA89E" stroke-width="5"/>
<path d="M66.5784 189.479C40.1618 181.902 39.0799 187.28 41.6251 200.01C14.2099 236.34 99.1377 230.953 110.789 198.43C108.558 192.325 106.879 189.59 99.9399 191.059C91.3628 189.939 87.2473 190.575 82.5811 196.588C77.6378 187.846 74.307 185.501 66.5784 189.479Z" fill="#AAAE9F" stroke="#9CA89E" stroke-width="5"/>
<path d="M38.5389 180.535C47.8923 180.263 60.5086 174.217 61.3223 169.478C62.136 164.74 61.1321 163.499 57.7963 156.315C54.5342 149.38 52.067 147.886 46.6758 148.944C41.7836 148.076 39.1522 147.265 33.3855 148.944C29.841 148.642 28.2429 150.609 25.791 156.315C24.8036 149.853 23.0655 147.854 16.5691 148.944L6.26231 158.684C2.76195 163.825 3.19615 166.707 6.26231 171.848L20.0951 182.115C26.8316 181.908 30.8342 181.592 38.5389 180.535Z" fill="#AAAE9F" stroke="#9CA89E" stroke-width="5"/>
<path d="M114.638 143.849C104.099 125.373 87.8106 115.502 63.9255 113C48.032 113.196 41.1761 114.481 61.9963 135.691C63.8222 140.927 66.4722 143.177 79.1184 143.849C71.0894 161.124 76.811 160.923 86.112 161.441C115.943 158.31 121.024 154.177 114.638 143.849Z" fill="#AAAE9F" stroke="#9CA89E" stroke-width="5" stroke-linecap="round"/>
<path d="M134.695 191.113C136.349 198.121 136.111 201.554 134.695 207.255L141.848 213.066L146.4 196.924L154.853 174.326L166.558 158.831C171.141 160.107 172.881 159.792 175.662 158.831C185.043 154.491 189.225 151.555 195.82 145.918C206.644 132.477 211.766 124.992 219.88 111.698C236.766 91.776 247.207 81.2559 268 63.9197C254.56 67.0641 247.027 68.7208 233.536 75.5414C215.432 83.921 205.251 88.5007 188.017 100.076C173 110.758 166.313 118.068 159.405 134.941C157.839 141.749 157.931 145.566 159.405 152.374C168.741 138.062 173.826 129.981 188.017 117.509L215.978 95.5567C198.666 112.145 188.575 121.056 173.061 139.461L149.001 177.555V142.689V125.257C146.845 111.842 145.728 104.384 141.848 89.7458L127.542 47.7783L141.848 80.061C148.954 98.5817 151.344 109.074 154.853 127.839C159.755 116.725 161.399 109.163 159.405 89.7458C156.024 76.2211 153.51 68.6053 146.4 54.8805C131.376 32.9211 120.847 20.8665 96.9793 0L113.236 47.7783C118.266 73.0121 119.768 87.8023 127.542 111.698C132.908 120.164 136.267 124.796 146.4 131.713C145.561 147.985 146.227 156.66 141.848 174.326L131.444 152.374C133.887 148.545 134.251 145.897 131.444 139.461C125.705 131.674 122.34 132.359 117.788 134.941C113.236 137.524 117.788 149.146 117.788 149.146C117.788 149.146 121.444 154.919 127.542 156.248C131.545 164.407 134.081 168.943 134.695 177.555L122.99 162.705L103.482 142.689C104.727 137.075 101.013 127.747 100.231 127.839C99.4606 126.161 88.7235 117.93 83.3237 127.839C82.3513 134.988 83.4853 138.174 87.8756 142.689C93.2242 145.191 95.5191 146.023 100.231 145.918C108.037 150.878 111.464 155.254 117.788 162.705C126.51 173.257 130.581 179.383 134.695 191.113Z" fill="#AABFB8"/>
</svg>
